<svg xmlns="http://www.w3.org/2000/svg" version="1.1" xmlns:xlink="http://www.w3.org/1999/xlink" xmlns:svgjs="http://svgjs.dev/svgjs" width="1080" height="1920" preserveAspectRatio="none" viewBox="0 0 1080 1920"><g mask="url(&quot;#SvgjsMask1024&quot;)" fill="none"><path d="M793.539,1263.305C868.974,1262.715,927.151,1206.868,966.891,1142.747C1009.522,1073.961,1045.254,990.752,1006.481,919.72C966.599,846.657,876.696,821.468,793.539,825.168C717.097,828.569,648.253,870.437,611.068,937.312C574.916,1002.33,579.092,1080.579,615.428,1145.495C652.692,1212.068,717.248,1263.901,793.539,1263.305" fill="rgba(28, 83, 142, 0.4)" class="triangle-float2"></path><path d="M186.407,1456.171C277.927,1456.031,348.412,1384.539,392.887,1304.552C435.899,1227.198,448.46,1136.11,408.201,1057.288C364.042,970.831,283.461,897.946,186.407,900.291C92.187,902.567,25.425,983.706,-17.571,1067.574C-56.303,1143.124,-60.627,1230.011,-21.168,1305.184C21.453,1386.381,94.704,1456.311,186.407,1456.171" fill="rgba(28, 83, 142, 0.4)" class="triangle-float1"></path><path d="M250.206,1598.106C313.643,1599.34,380.638,1580.964,412.566,1526.134C444.653,1471.032,427.197,1403.837,395.576,1348.466C363.634,1292.532,314.618,1242.017,250.206,1241.822C185.537,1241.626,134.275,1290.811,103.303,1347.581C73.785,1401.686,67.251,1466.858,98.427,1520.025C129.272,1572.628,189.238,1596.92,250.206,1598.106" fill="rgba(28, 83, 142, 0.4)" class="triangle-float2"></path><path d="M823.551,1236.733C917.952,1239.781,1010.332,1197.317,1058.904,1116.314C1108.804,1033.096,1110.719,926.574,1058.616,844.718C1009.748,767.943,914.533,748.75,823.551,746.564C727.23,744.249,617.161,750.027,568.069,832.931C518.421,916.774,561.028,1019.579,613.126,1101.922C660.862,1177.372,734.314,1233.852,823.551,1236.733" fill="rgba(28, 83, 142, 0.4)" class="triangle-float2"></path><path d="M472.808,127.914C517.487,130.032,564.61,113.368,585.787,73.97C606.176,36.038,587.825,-7.943,565.691,-44.885C544.367,-80.476,514.196,-111.688,472.808,-114.593C426.24,-117.861,376.283,-100.866,354.217,-59.727C332.961,-20.098,352.95,26.056,376.975,64.07C398.954,98.847,431.714,125.966,472.808,127.914" fill="rgba(28, 83, 142, 0.4)" class="triangle-float2"></path><path d="M732.06,293.341C802.602,293.742,868.797,259.334,905.599,199.152C944.091,136.205,952.48,56.897,915.793,-7.119C878.923,-71.454,806.132,-100.246,732.06,-103.66C650.214,-107.432,556.781,-96.842,516.447,-25.525C476.467,45.165,516.415,129.923,561.906,197.198C601.017,255.039,662.238,292.944,732.06,293.341" fill="rgba(28, 83, 142, 0.4)" class="triangle-float3"></path><path d="M483.891,595.522C542.92,592.097,600.985,574.263,633.584,524.933C669.861,470.037,683.963,398.972,651.659,341.647C618.88,283.478,550.659,258.883,483.891,259.296C417.929,259.704,355.344,288.211,319.679,343.701C280.769,404.241,261.44,483.963,300.749,544.245C337.863,601.159,416.059,599.458,483.891,595.522" fill="rgba(28, 83, 142, 0.4)" class="triangle-float1"></path><path d="M189.688,945.426C234.785,943.079,270.476,912.806,294.258,874.418C319.725,833.309,341.177,782.416,316.402,740.887C291.982,699.953,237.353,699.243,189.688,699.133C141.742,699.022,88.618,700.45,61.955,740.298C32.927,783.68,36.802,842.074,64.394,886.384C90.551,928.39,140.271,947.998,189.688,945.426" fill="rgba(28, 83, 142, 0.4)" class="triangle-float1"></path></g><defs><mask id="SvgjsMask1024"><rect width="1080" height="1920" fill="#ffffff"></rect></mask><style>
                @keyframes float1 {
                    0%{transform: translate(0, 0)}
                    50%{transform: translate(-10px, 0)}
                    100%{transform: translate(0, 0)}
                }

                .triangle-float1 {
                    animation: float1 5s infinite;
                }

                @keyframes float2 {
                    0%{transform: translate(0, 0)}
                    50%{transform: translate(-5px, -5px)}
                    100%{transform: translate(0, 0)}
                }

                .triangle-float2 {
                    animation: float2 4s infinite;
                }

                @keyframes float3 {
                    0%{transform: translate(0, 0)}
                    50%{transform: translate(0, -10px)}
                    100%{transform: translate(0, 0)}
                }

                .triangle-float3 {
                    animation: float3 6s infinite;
                }
            </style></defs></svg>