<svg xmlns="http://www.w3.org/2000/svg" version="1.1" xmlns:xlink="http://www.w3.org/1999/xlink" xmlns:svgjs="http://svgjs.dev/svgjs" width="1080" height="1920" preserveAspectRatio="none" viewBox="0 0 1080 1920"><g mask="url(&quot;#SvgjsMask1044&quot;)" fill="none"><path d="M-40.782,1108.625C-11.919,1108.693,18.824,1104.446,34.96,1080.515C52.854,1053.976,56.275,1017.633,38.531,990.994C22.108,966.339,-11.206,965.111,-40.782,966.805C-66.695,968.289,-91.441,977.624,-105.78,999.259C-121.873,1023.54,-130.795,1055.121,-115.912,1080.162C-101.248,1104.836,-69.485,1108.558,-40.782,1108.625" fill="rgba(255, 87, 51, 0.60)" class="triangle-float1"></path><path d="M279.633,930.769C344.538,929.769,413.478,916.309,447.379,860.952C482.505,803.593,471.586,730.943,437.522,672.947C403.937,615.767,345.895,572.73,279.633,575.358C216.902,577.846,174.67,631.031,142.045,684.668C107.546,741.385,70.29,808.322,102.685,866.266C135.52,924.998,212.354,931.806,279.633,930.769" fill="rgba(255, 87, 51, 0.60)" class="triangle-float1"></path><path d="M752.403,1412.632C786.315,1412.818,811.148,1383.556,826.52,1353.327C840.322,1326.186,840.899,1294.601,825.9,1268.102C810.667,1241.19,783.32,1223.018,752.403,1222.38C720.365,1221.719,689.085,1236.98,673.454,1264.954C658.155,1292.333,664.897,1324.861,679.683,1352.52C695.574,1382.246,718.697,1412.447,752.403,1412.632" fill="rgba(255, 87, 51, 0.60)" class="triangle-float3"></path><path d="M957.551,615.13C1040.118,617.631,1122.422,574.047,1157.69,499.349C1189.467,432.046,1145.264,361.363,1107.704,297.107C1070.673,233.756,1030.886,159.537,957.551,156.963C881.489,154.293,824.356,219.043,787.956,285.883C753.403,349.331,744.283,423.602,777.366,487.829C813.459,557.899,878.768,612.744,957.551,615.13" fill="rgba(255, 87, 51, 0.60)" class="triangle-float1"></path><path d="M743.947,2100.659C836.523,2104.129,924.321,2059.531,974.252,1981.498C1028.522,1896.684,1047.599,1789.438,999.793,1700.819C949.807,1608.159,849.137,1550.148,743.947,1554.58C645.203,1558.74,566.56,1632.245,522.902,1720.911C484.221,1799.469,497.671,1889.608,541.722,1965.286C585.459,2040.425,657.066,2097.403,743.947,2100.659" fill="rgba(255, 87, 51, 0.60)" class="triangle-float2"></path><path d="M528.668,789.506C636.079,796.419,750.19,765.242,806.785,673.689C865.81,578.206,855.59,453.803,794.339,359.732C738.045,273.274,631.838,246.468,528.668,246.548C425.674,246.628,314.232,270.393,263.706,360.142C213.835,448.729,252.948,554.968,306.335,641.481C356.449,722.689,433.439,783.377,528.668,789.506" fill="rgba(255, 87, 51, 0.60)" class="triangle-float1"></path><path d="M409.838,213.052C438.763,212.057,467.432,202.085,482.597,177.434C498.468,151.637,498.111,119.414,483.9,92.667C468.714,64.084,442.204,40.296,409.838,40.488C377.728,40.678,353.314,65.714,337.282,93.536C321.278,121.309,311.222,155.359,327.856,182.759C344.06,209.45,378.631,214.126,409.838,213.052" fill="rgba(255, 87, 51, 0.60)" class="triangle-float2"></path><path d="M423.904,2205.838C541.331,2205.446,637.398,2121.434,694.014,2018.556C748.421,1919.692,756.827,1800.697,700.754,1702.768C644.346,1604.252,537.39,1543.952,423.904,1546.817C314.977,1549.567,224.707,1621.783,170.249,1716.16C115.817,1810.491,100.559,1923.665,150.652,2020.37C204.921,2125.136,305.918,2206.232,423.904,2205.838" fill="rgba(255, 87, 51, 0.60)" class="triangle-float3"></path></g><defs><mask id="SvgjsMask1044"><rect width="1080" height="1920" fill="#ffffff"></rect></mask><style>
                @keyframes float1 {
                    0%{transform: translate(0, 0)}
                    50%{transform: translate(-10px, 0)}
                    100%{transform: translate(0, 0)}
                }

                .triangle-float1 {
                    animation: float1 5s infinite;
                }

                @keyframes float2 {
                    0%{transform: translate(0, 0)}
                    50%{transform: translate(-5px, -5px)}
                    100%{transform: translate(0, 0)}
                }

                .triangle-float2 {
                    animation: float2 4s infinite;
                }

                @keyframes float3 {
                    0%{transform: translate(0, 0)}
                    50%{transform: translate(0, -10px)}
                    100%{transform: translate(0, 0)}
                }

                .triangle-float3 {
                    animation: float3 6s infinite;
                }
            </style></defs></svg>