<svg xmlns="http://www.w3.org/2000/svg" version="1.1" xmlns:xlink="http://www.w3.org/1999/xlink" xmlns:svgjs="http://svgjs.dev/svgjs" width="480" height="675" preserveAspectRatio="none" viewBox="0 0 480 675"><g mask="url(&quot;#SvgjsMask1039&quot;)" fill="none"><path d="M298.487,336.513C317.42,336.999,333.866,325.145,343.819,309.032C354.382,291.932,360.085,270.504,350.005,253.115C339.948,235.765,318.516,229.828,298.487,230.831C280.275,231.743,263.93,241.858,255.193,257.863C246.809,273.221,248.576,291.475,257.014,306.803C265.803,322.77,280.267,336.045,298.487,336.513" fill="rgba(255, 87, 51, 0.60)" class="triangle-float2"></path><path d="M165.007,305.758C204.748,306.244,238.64,278.739,257.299,243.647C274.822,210.692,271.592,171.915,253.547,139.243C234.807,105.313,203.619,79.933,165.007,76.542C119.372,72.534,66.354,80.532,44.697,120.901C23.641,160.151,52.25,204.104,76.546,241.435C97.861,274.186,125.934,305.28,165.007,305.758" fill="rgba(255, 87, 51, 0.60)" class="triangle-float3"></path><path d="M286.307,164.368C304.838,164.662,319.239,150.283,328.551,134.259C337.919,118.138,343.662,98.279,333.967,82.353C324.536,66.86,304.439,65.321,286.307,64.859C266.963,64.367,244.048,63.128,234.25,79.814C224.392,96.603,236.115,116.376,246.322,132.955C255.846,148.424,268.143,164.08,286.307,164.368" fill="rgba(255, 87, 51, 0.60)" class="triangle-float2"></path><path d="M156.605,536.828C172.754,538.006,191.747,536.165,199.398,521.895C206.85,507.996,196.193,492.501,187.386,479.418C179.942,468.36,169.919,458.974,156.605,458.329C142.136,457.629,127.383,463.591,120.19,476.165C113.038,488.668,115.998,504.003,123.411,516.353C130.582,528.3,142.708,535.814,156.605,536.828" fill="rgba(255, 87, 51, 0.60)" class="triangle-float2"></path><path d="M387.525,376.401C406.486,378.148,424.681,367.12,434.166,350.61C443.618,334.158,443.496,313.219,432.845,297.517C423.228,283.339,404.64,281.08,387.525,281.85C372.046,282.547,356.238,287.731,348.76,301.302C341.486,314.503,346.806,329.806,353.72,343.2C361.484,358.242,370.668,374.848,387.525,376.401" fill="rgba(255, 87, 51, 0.60)" class="triangle-float2"></path><path d="M357.21,605.655C388.495,608.139,422.423,596.332,436.772,568.421C450.36,541.991,433.623,512.67,418.014,487.381C403.494,463.856,384.816,440.983,357.21,439.523C327.358,437.945,297.774,453.695,284.147,480.303C271.435,505.125,282.841,533.221,296.885,557.315C310.793,581.176,329.679,603.469,357.21,605.655" fill="rgba(255, 87, 51, 0.60)" class="triangle-float3"></path></g><defs><mask id="SvgjsMask1039"><rect width="480" height="675" fill="#ffffff"></rect></mask></defs></svg>