<svg xmlns="http://www.w3.org/2000/svg" version="1.1" xmlns:xlink="http://www.w3.org/1999/xlink" xmlns:svgjs="http://svgjs.dev/svgjs" width="1440" height="560" preserveAspectRatio="none" viewBox="0 0 1440 560"><g mask="url(&quot;#SvgjsMask1031&quot;)" fill="none"><rect width="1440" height="560" x="0" y="0" fill="#0e2a47"></rect><path d="M1147.212,396.939C1184.08,397.445,1224.702,395.69,1245.408,365.182C1268.218,331.575,1267.683,285.794,1245.928,251.495C1225.464,219.231,1185.376,208.549,1147.212,210.366C1112.46,212.02,1081.764,230.545,1063.533,260.177C1044.277,291.474,1034.4,331.205,1053.578,362.549C1072.177,392.947,1111.578,396.45,1147.212,396.939" fill="rgba(28, 83, 142, 0.4)" class="triangle-float2"></path><path d="M234.236,468.292C284.157,468.091,334.843,450.653,360.089,407.586C385.582,364.097,376.952,310.729,352.411,266.696C327.1,221.282,286.184,183.89,234.236,181.773C178.832,179.515,125.3,208.006,98.11,256.332C71.392,303.82,77.168,362.761,106.612,408.608C133.812,450.961,183.901,468.495,234.236,468.292" fill="rgba(28, 83, 142, 0.4)" class="triangle-float3"></path><path d="M189.22,518.503C206.621,519.235,222.698,508.337,230.675,492.855C238.074,478.495,234.19,461.596,225.583,447.926C217.598,435.244,204.198,427.508,189.22,427.015C173.256,426.49,156.395,431.525,148.46,445.388C140.564,459.183,145.654,475.722,153.394,489.605C161.401,503.968,172.791,517.812,189.22,518.503" fill="rgba(28, 83, 142, 0.4)" class="triangle-float3"></path><path d="M1493.137,543.723C1544.871,542.012,1596.096,521.942,1621.725,476.97C1647.136,432.381,1637.521,378.615,1612.892,333.589C1587.032,286.313,1547.003,243.409,1493.137,241.89C1437.13,240.311,1389.583,278.25,1361.084,326.489C1332.014,375.694,1319.239,437.155,1348.925,485.99C1377.752,533.413,1437.67,545.557,1493.137,543.723" fill="rgba(28, 83, 142, 0.4)" class="triangle-float2"></path><path d="M844.766,509.478C896.317,509.735,946.303,487.774,973.267,443.836C1001.481,397.861,1005.637,339.04,977.67,292.914C950.582,248.238,896.937,229.097,844.766,231.9C797.373,234.446,758.896,265.273,734.492,305.979C709.229,348.117,695.062,399.367,718.47,442.563C742.798,487.458,793.704,509.223,844.766,509.478" fill="rgba(28, 83, 142, 0.4)" class="triangle-float3"></path><path d="M1062.962,484.139C1094.208,485.585,1124.788,471.581,1141.28,445.003C1158.679,416.964,1161.332,381.093,1144.525,352.695C1127.993,324.762,1095.42,312.911,1062.962,312.674C1030.015,312.433,994.755,322.386,979.305,351.487C964.487,379.396,979.412,411.563,996.268,438.291C1011.692,462.748,1034.079,482.802,1062.962,484.139" fill="rgba(28, 83, 142, 0.4)" class="triangle-float3"></path><path d="M8.076,559.138C30.372,559.489,49.894,546.791,62.332,528.283C76.704,506.897,89.125,479.917,76.356,457.536C63.522,435.041,33.975,433.087,8.076,433.184C-17.589,433.28,-46.958,435.555,-59.324,458.045C-71.446,480.091,-57.256,505.687,-43.3,526.62C-31.25,544.694,-13.644,558.796,8.076,559.138" fill="rgba(28, 83, 142, 0.4)" class="triangle-float2"></path><path d="M202.777,657.729C245.543,657.631,284.94,632.834,304.656,594.884C323.029,559.518,312.942,518.48,293.065,483.936C273.126,449.284,242.733,419.195,202.777,417.827C160.708,416.386,122.18,440.925,101.103,477.362C79.995,513.852,79.387,558.63,100.088,595.352C121.167,632.746,159.851,657.827,202.777,657.729" fill="rgba(28, 83, 142, 0.4)" class="triangle-float3"></path><path d="M1432.744,303.464C1480.012,304.519,1530.034,286.794,1551.238,244.536C1571.056,205.04,1544.866,162.415,1522.702,124.186C1500.643,86.137,1476.633,42.998,1432.744,40.151C1385.268,37.071,1342.952,69.357,1320.014,111.038C1297.89,151.24,1299.871,199.851,1323.067,239.445C1346.001,278.593,1387.384,302.452,1432.744,303.464" fill="rgba(28, 83, 142, 0.4)" class="triangle-float2"></path><path d="M1196.932,128.601C1220.518,129.47,1237.807,108.293,1248.423,87.213C1257.886,68.421,1258.03,46.504,1247.428,28.331C1236.91,10.303,1217.786,-0.179,1196.932,-1.048C1174.293,-1.992,1149.267,3.815,1138.577,23.794C1128.253,43.091,1140.97,64.527,1151.616,83.648C1162.709,103.572,1174.143,127.762,1196.932,128.601" fill="rgba(28, 83, 142, 0.4)" class="triangle-float2"></path></g><defs><mask id="SvgjsMask1031"><rect width="1440" height="560" fill="#ffffff"></rect></mask></defs></svg>